<svg width="192" height="19" viewBox="0 0 192 19" fill="none" xmlns="http://www.w3.org/2000/svg">
<g clip-path="url(#clip0_854_2966)">
<path d="M8.44179 18.8676V17.9408L4.99754 10.9233H4.38973V17.7422L4.99754 18.8676H0L0.607809 17.7422V1.12544L0 0H4.99754L4.38973 1.12544V7.14983H5.06507L8.50932 0.926829V0.0662021H13.4393L12.4938 1.25784L8.30672 8.60627L12.8315 17.4774L13.9796 18.9338H8.37425H8.44179V18.8676ZM27.4189 0.0662021L30.1203 2.71429V10.7909L27.7566 13.108L29.5125 17.4774L30.5255 18.9338H25.3254V17.7422L23.7721 13.439H22.4214V17.8084L23.0292 18.9338H18.0317L18.6395 17.8084V1.19164L18.0317 0.0662021H27.4865H27.4189ZM22.4214 9.5993H26.2708V3.83972H22.4214V9.5993ZM45.1129 18.8676L45.3155 17.4774L44.8428 15.6237H39.5751L39.1024 17.4774L39.305 18.8676H34.51L34.9828 17.8084L39.5076 1.12544L39.1024 0.0662021H45.248L44.8428 1.12544L49.3676 17.8084L49.8403 18.8676H45.0454H45.1129ZM43.8973 12.0488L42.2089 5.75958L40.5206 12.0488H43.8973ZM107.312 18.8676L106.704 17.7422V8.73868L110.756 18.8676H115.349L114.741 17.7422V1.12544L115.349 0H110.351L110.959 1.12544V10.1289L106.907 0H102.314L102.922 1.12544V17.7422L102.314 18.8676H107.312ZM59.2276 18.8676L58.6198 17.7422V11.3868H62.4692L63.6173 11.9826V7.08362L62.4692 7.67944H58.6198V3.90592H64.3602L65.5083 4.50174V0.132404H54.1625L54.7703 1.25784V17.8746L54.1625 19H59.16V18.8676H59.2276ZM78.2723 18.8676L77.6644 17.7422V3.77352H80.771L81.9191 4.36934V0H69.6279V4.36934L70.7759 3.77352H73.815V17.7422L73.2072 18.8676H78.2723ZM88.6725 18.8676L85.9712 16.2195V2.64808L88.6725 0H95.2234L97.9247 2.64808V16.2195L95.2234 18.8676H88.6725ZM94.0753 15.0941V3.77352H89.8206V15.0941H94.0753Z" fill="black"/>
<path d="M146.077 16.2195L148.17 13.7038C149.521 14.8955 151.277 15.6899 152.898 15.6899C154.518 15.6899 155.869 14.8955 155.869 13.6376C155.869 12.3798 154.721 11.8502 153.1 11.1882L150.601 10.1289C148.71 9.33449 146.887 7.87805 146.887 5.22996C146.887 2.58188 149.521 0 153.303 0C157.085 0 157.625 0.860627 159.111 2.31707L157.22 4.56794C156.072 3.64111 154.789 3.1115 153.303 3.1115C151.817 3.1115 150.669 3.83972 150.669 5.03136C150.669 6.223 151.952 6.81881 153.573 7.41463L156.004 8.40767C158.233 9.33449 159.719 10.7247 159.719 13.3066C159.719 15.8885 157.22 18.8014 152.898 18.8014C148.575 18.8014 147.968 17.8746 146.144 16.1533H146.077V16.2195Z" fill="black"/>
<path d="M161.88 11.6516C161.88 7.08363 165.121 4.43555 168.633 4.43555C172.145 4.43555 175.387 7.08363 175.387 11.6516C175.387 16.2195 172.145 18.8676 168.633 18.8676C165.121 18.8676 161.88 16.2195 161.88 11.6516ZM171.537 11.6516C171.537 9.06969 170.457 7.41464 168.566 7.41464C166.675 7.41464 165.594 9.06969 165.594 11.6516C165.594 14.2335 166.675 15.8885 168.566 15.8885C170.457 15.8885 171.537 14.2335 171.537 11.6516Z" fill="black"/>
<path d="M177.615 9.53309C177.615 3.5749 181.532 0.0661926 186.192 0.0661926C190.852 0.0661926 190.447 1.19163 191.595 2.38327L189.704 4.70034C188.758 3.83971 187.678 3.17769 186.259 3.17769C183.423 3.17769 181.329 5.56097 181.329 9.40069C181.329 13.2404 183.22 15.6899 186.192 15.6899C189.163 15.6899 189.028 14.9617 190.041 13.9024L192 16.1533C190.514 17.8746 188.488 18.8014 186.124 18.8014C181.465 18.8014 177.683 15.4913 177.683 9.46689H177.615V9.53309Z" fill="black"/>
<path d="M126.762 3.64111L138.716 15.3589" stroke="black" stroke-width="0.6" stroke-miterlimit="10"/>
<path d="M138.716 3.64111L126.762 15.3589" stroke="black" stroke-width="0.6" stroke-miterlimit="10"/>
<path d="M126.762 3.64111L138.716 15.3589" stroke="black" stroke-width="0.6" stroke-miterlimit="10"/>
<path d="M138.716 3.64111L126.762 15.3589" stroke="black" stroke-width="0.6" stroke-miterlimit="10"/>
</g>
<defs>
<clipPath id="clip0_854_2966">
<rect width="192" height="19" fill="white"/>
</clipPath>
</defs>
</svg>
