<svg width="106" height="18" viewBox="0 0 106 18" fill="none" xmlns="http://www.w3.org/2000/svg">
<path d="M7.71246 17.9832L7.76158 17.1092L4.60128 10.4034H4.02817V16.9076L4.55216 17.9832H0L0.52399 16.9076V1.09244L0 0.0168077H4.55216L4.02817 1.09244V6.80673H4.63403L7.76158 0.873952L7.71246 0.0168077H12.2646L11.4131 1.12605L7.63058 8.15127L11.7242 16.6218L12.7886 18H7.71246V17.9832ZM25.0368 0.0168077L27.493 2.53782V10.2185L25.3316 12.437L26.9199 16.6218L27.8533 18H23.121L23.1865 16.8403L21.7128 12.7395H20.4847V16.9244L21.0087 18H16.4565L16.9805 16.9244V1.10924L16.4565 0.0336155H25.0368V0.0168077ZM20.4847 9.12605H23.9888V3.61345H20.4847V9.12605ZM41.1167 17.9832L41.3132 16.6555L40.8711 14.9076H36.1061L35.664 16.6555L35.8604 17.9832H31.4884L31.9305 16.9916L36.0733 1.05883L35.6967 0.0168077H41.2968L40.9202 1.05883L45.063 16.9916L45.5051 17.9832H41.1331H41.1167ZM40.0032 11.4622L38.4968 5.49579L36.9903 11.4622H40.0196H40.0032ZM97.8057 17.9832L97.2817 16.9076V8.31933L100.95 17.9832H105.158L104.634 16.9076V1.09244L105.158 0.0168077H100.606L101.13 1.09244V9.68067L97.4454 0.0168077H93.2372L93.7611 1.09244V16.9076L93.2372 17.9832H97.7893H97.8057ZM54.0199 17.9832L53.4959 16.9076V10.8235H57.0001L58.0481 11.3613V6.68908L57.0001 7.2269H53.4959V3.59664H58.7522L59.8002 4.13445V0H49.4678L49.9918 1.07563V16.8908L49.4678 17.9664H54.0199V17.9832ZM71.3606 17.9832L70.8366 16.9076V3.61345H73.6367L74.6847 4.15126V0.0168077H63.4845V4.15126L64.5324 3.61345H67.3325V16.9076L66.8085 17.9832H71.3606ZM80.8252 17.9832L78.369 15.4622V2.52101L80.8252 0H86.7855L89.2417 2.52101V15.4622L86.7855 17.9832H80.8252ZM85.7212 14.3866V3.61345H81.8732V14.3866H85.7212Z" fill="black"/>
</svg>
