<svg width="127" height="21" viewBox="0 0 127 21" fill="none" xmlns="http://www.w3.org/2000/svg">
<g clip-path="url(#clip0_854_2978)">
<path d="M38.6763 0H35.2045V12.9736H38.6763V0Z" fill="black"/>
<path d="M53.7094 0V2.69852H58.0492V12.9736H61.521V2.69852H65.8608V0H53.7094Z" fill="black"/>
<path d="M48.8835 5.12026H46.0019C45.2381 5.12026 44.6131 4.8089 44.6131 3.90939C44.6131 3.00988 45.2381 2.69852 46.0019 2.69852H52.2165V0H45.5852C43.1202 0 41.1066 1.41845 41.1066 3.90939C41.1066 6.40033 43.1202 7.81878 45.5852 7.81878H48.571C49.3348 7.81878 49.9598 8.13015 49.9598 9.02965C49.9598 9.92916 49.3348 10.2405 48.571 10.2405H41.5926V12.939H48.8835C51.3485 12.939 53.3622 11.5206 53.3622 9.02965C53.3622 6.53871 51.3485 5.12026 48.8835 5.12026Z" fill="black"/>
<path d="M24.6847 0L19.7894 11.659L15.1372 6.46952L20.9699 0H17.012L11.4917 6.15815V0H8.0199V12.9736H11.4917V6.81549L17.012 12.9736H22.7752L26.7331 3.18287L29.6148 10.3789H25.0319L26.1082 12.9736H34.1976L28.7815 0H24.6847Z" fill="black"/>
<path d="M0 18.4053C12.082 20.1005 24.4071 21 36.9404 21C49.4738 21 61.8335 20.1005 73.8808 18.4053C61.7988 16.7101 49.4738 15.8105 36.9404 15.8105C24.4071 15.8105 12.082 16.7101 0 18.4053Z" fill="black"/>
<path d="M80.6161 6.67712C80.4078 6.74631 80.1648 6.8155 79.887 6.8155C79.6093 6.8155 79.3663 6.78091 79.158 6.67712C78.9496 6.60792 78.7761 6.46954 78.6372 6.29656C78.4983 6.12358 78.4289 5.95059 78.3942 5.70842H77.1443C77.1443 6.15817 77.2832 6.53873 77.4915 6.8847C77.6998 7.19606 78.0122 7.47283 78.4289 7.61122C78.8455 7.7842 79.2968 7.85339 79.8523 7.85339C80.4078 7.85339 80.8939 7.74961 81.2758 7.57662C81.6577 7.40364 81.9701 7.16147 82.1785 6.8501C82.3868 6.53873 82.4909 6.19277 82.4909 5.77761C82.4909 5.36246 82.2826 4.77432 81.9354 4.46295C81.5535 4.15158 81.0675 3.90941 80.4425 3.77102L79.7829 3.59804C79.4357 3.49425 79.1232 3.39046 78.9149 3.25208C78.7066 3.11369 78.5677 2.90611 78.5677 2.62934C78.5677 2.35257 78.6372 2.28338 78.7413 2.14499C78.8455 2.00661 78.9844 1.90282 79.1927 1.83363C79.401 1.76443 79.6093 1.72984 79.8523 1.72984C80.0954 1.72984 80.3384 1.72984 80.512 1.83363C80.7203 1.90282 80.8592 2.00661 80.9633 2.14499C81.0675 2.28338 81.1369 2.45636 81.1716 2.66394H82.3868C82.3868 2.28338 82.2826 1.93741 82.0396 1.62605C81.8313 1.31468 81.5188 1.07251 81.1369 0.899523C80.755 0.726541 80.3384 0.657349 79.8523 0.657349C79.3663 0.657349 78.9149 0.726541 78.533 0.899523C78.1511 1.07251 77.8387 1.31468 77.6303 1.62605C77.422 1.93741 77.2832 2.28338 77.2832 2.69853C77.2832 3.11369 77.4568 3.56344 77.7692 3.87481C78.0817 4.18618 78.5677 4.42835 79.158 4.56674L79.9565 4.77432C80.2342 4.84351 80.4773 4.9127 80.6509 5.01649C80.8244 5.12028 80.9633 5.18947 81.0675 5.32786C81.1716 5.43165 81.2063 5.60463 81.2063 5.77761C81.2063 5.95059 81.1369 6.15817 81.0327 6.29656C80.9286 6.43494 80.755 6.57333 80.5467 6.64252H80.6161V6.67712Z" fill="black"/>
<path d="M85.8239 7.85338C86.2405 7.85338 86.6224 7.78419 86.9696 7.61121C87.2821 7.43823 87.5598 7.23065 87.7334 6.95388C87.907 6.67711 88.0459 6.33114 88.0459 5.98518H86.8655C86.8307 6.15816 86.7613 6.33114 86.6571 6.46953C86.553 6.60791 86.4488 6.7117 86.2752 6.7809C86.1364 6.85009 85.9628 6.88469 85.7892 6.88469C85.6156 6.88469 85.3031 6.81549 85.0948 6.67711C84.8865 6.53872 84.7476 6.33114 84.6435 6.08897C84.5393 5.84679 84.4699 5.53543 84.4699 5.15487C84.4699 4.77431 84.5393 4.49754 84.6435 4.25536C84.7476 4.01319 84.8865 3.80561 85.0948 3.66722C85.3031 3.52884 85.5114 3.45964 85.7545 3.45964C85.9975 3.45964 86.1364 3.49424 86.2752 3.56343C86.4141 3.63263 86.553 3.73642 86.6224 3.8748C86.7266 4.01319 86.796 4.15157 86.796 4.32455H87.9764C87.9764 3.94399 87.8376 3.63263 87.6293 3.32126C87.4209 3.04449 87.1779 2.80231 86.8307 2.66393C86.4836 2.52554 86.1364 2.42175 85.685 2.42175C85.2337 2.42175 84.7476 2.52554 84.3657 2.76772C83.9838 3.00989 83.7061 3.32126 83.4978 3.73642C83.2895 4.15157 83.1853 4.60132 83.1853 5.15487C83.1853 5.70841 83.2895 6.15816 83.4978 6.57332C83.7061 6.98847 83.9838 7.29984 84.3657 7.54202C84.7476 7.78419 85.199 7.88798 85.7197 7.88798H85.8239V7.85338Z" fill="black"/>
<path d="M90.2331 4.70514C90.2331 4.46296 90.2679 4.25538 90.372 4.0478C90.4762 3.87482 90.615 3.73644 90.7886 3.63265C90.9622 3.52886 91.1705 3.49426 91.3789 3.49426C91.5872 3.49426 91.7955 3.52886 91.9343 3.63265C92.0732 3.73644 92.2121 3.84023 92.2815 4.01321C92.351 4.18619 92.4204 4.39377 92.4204 4.60135V7.74962H93.6356V4.42837C93.6356 4.01321 93.5661 3.66724 93.4272 3.35588C93.2884 3.04451 93.0801 2.83693 92.8023 2.69855C92.5246 2.56016 92.2121 2.45637 91.8302 2.45637C91.4483 2.45637 91.1011 2.52556 90.8581 2.69855C90.5803 2.87153 90.4067 3.1137 90.2679 3.39047H90.1984V0.795746H88.9833V7.78421H90.1984V4.70514H90.2331Z" fill="black"/>
<path d="M99.3293 6.57333C99.5376 6.15817 99.6418 5.70842 99.6418 5.15488C99.6418 4.60134 99.5376 4.15158 99.3293 3.73643C99.121 3.32127 98.8433 3.0099 98.4614 2.80232C98.0795 2.56015 97.6281 2.45636 97.1421 2.45636C96.656 2.45636 96.2047 2.56015 95.8228 2.80232C95.4409 3.0445 95.1631 3.35587 94.9548 3.73643C94.7465 4.15158 94.6423 4.60134 94.6423 5.15488C94.6423 5.70842 94.7465 6.15817 94.9548 6.57333C95.1631 6.98848 95.4409 7.29985 95.8228 7.50743C96.2047 7.74961 96.656 7.85339 97.1421 7.85339C97.6281 7.85339 98.0795 7.74961 98.4614 7.50743C98.8433 7.26526 99.121 6.95389 99.3293 6.57333ZM98.253 6.05438C98.1489 6.33115 98.01 6.50414 97.8364 6.67712C97.6628 6.8155 97.4198 6.91929 97.1421 6.91929C96.8643 6.91929 96.6213 6.8501 96.4477 6.67712C96.2394 6.53873 96.1005 6.33115 95.9964 6.05438C95.8922 5.81221 95.8575 5.50084 95.8575 5.18947C95.8575 4.87811 95.8922 4.56674 95.9964 4.28997C96.1005 4.0132 96.2394 3.84021 96.4477 3.66723C96.656 3.52885 96.8643 3.42506 97.1421 3.42506C97.4198 3.42506 97.6281 3.49425 97.8364 3.66723C98.01 3.80562 98.1836 4.0132 98.253 4.28997C98.3572 4.56674 98.3919 4.84351 98.3919 5.18947C98.3919 5.53544 98.3572 5.81221 98.253 6.05438Z" fill="black"/>
<path d="M105.093 6.57333C105.301 6.15817 105.405 5.70842 105.405 5.15488C105.405 4.60134 105.301 4.15158 105.093 3.73643C104.884 3.32127 104.607 3.0099 104.225 2.80232C103.843 2.56015 103.391 2.45636 102.905 2.45636C102.419 2.45636 101.968 2.56015 101.586 2.80232C101.204 3.0445 100.926 3.35587 100.718 3.73643C100.51 4.15158 100.406 4.60134 100.406 5.15488C100.406 5.70842 100.51 6.15817 100.718 6.57333C100.926 6.98848 101.204 7.29985 101.586 7.50743C101.968 7.74961 102.419 7.85339 102.905 7.85339C103.391 7.85339 103.843 7.74961 104.225 7.50743C104.607 7.26526 104.884 6.95389 105.093 6.57333ZM104.016 6.05438C103.912 6.33115 103.773 6.50414 103.6 6.67712C103.426 6.8155 103.183 6.91929 102.905 6.91929C102.628 6.91929 102.385 6.8501 102.211 6.67712C102.003 6.53873 101.864 6.33115 101.76 6.05438C101.656 5.81221 101.621 5.50084 101.621 5.18947C101.621 4.87811 101.656 4.56674 101.76 4.28997C101.864 4.0132 102.003 3.84021 102.211 3.66723C102.419 3.52885 102.628 3.42506 102.905 3.42506C103.183 3.42506 103.391 3.49425 103.6 3.66723C103.773 3.80562 103.947 4.0132 104.016 4.28997C104.121 4.56674 104.155 4.84351 104.155 5.18947C104.155 5.53544 104.121 5.81221 104.016 6.05438Z" fill="black"/>
<path d="M107.592 0.795746H106.377V7.78421H107.592V0.795746Z" fill="black"/>
<path d="M114.779 2.80232C114.397 2.56015 113.946 2.45636 113.46 2.45636C112.974 2.45636 112.522 2.56015 112.141 2.80232C111.759 3.0445 111.481 3.35587 111.273 3.73643C111.064 4.15158 110.96 4.60134 110.96 5.15488C110.96 5.70842 111.064 6.15817 111.273 6.57333C111.481 6.98848 111.759 7.29985 112.141 7.50743C112.522 7.74961 112.974 7.85339 113.46 7.85339C113.946 7.85339 114.397 7.74961 114.779 7.50743C115.161 7.26526 115.439 6.95389 115.647 6.57333C115.855 6.15817 115.96 5.70842 115.96 5.15488C115.96 4.60134 115.855 4.15158 115.647 3.73643C115.439 3.32127 115.161 3.0099 114.779 2.80232ZM114.571 6.05438C114.467 6.33115 114.328 6.50414 114.154 6.67712C113.981 6.8155 113.738 6.91929 113.46 6.91929C113.182 6.91929 112.939 6.8501 112.765 6.67712C112.557 6.53873 112.418 6.33115 112.314 6.05438C112.21 5.81221 112.175 5.50084 112.175 5.18947C112.175 4.87811 112.21 4.56674 112.314 4.28997C112.418 4.0132 112.557 3.84021 112.765 3.66723C112.974 3.52885 113.182 3.42506 113.46 3.42506C113.738 3.42506 113.946 3.49425 114.154 3.66723C114.328 3.80562 114.501 4.0132 114.571 4.28997C114.675 4.56674 114.71 4.84351 114.71 5.18947C114.71 5.53544 114.675 5.81221 114.571 6.05438Z" fill="black"/>
<path d="M117.244 7.7842H118.494V3.49425H119.57V2.56015H118.494V2.17959C118.494 1.93741 118.563 1.76443 118.667 1.66064C118.806 1.55685 118.98 1.48766 119.223 1.48766H119.674V0.518961C119.57 0.518961 119.431 0.484364 119.292 0.449768H118.876C118.529 0.449768 118.251 0.518961 118.008 0.62275C117.765 0.761135 117.556 0.934117 117.452 1.1417C117.313 1.38387 117.244 1.66064 117.244 2.0066V2.49095H116.48V3.42506H117.244V7.7842Z" fill="black"/>
<path d="M79.4357 12.0049C79.7481 11.7974 80.0606 11.7282 80.4425 11.7282C80.8244 11.7282 80.998 11.7974 81.241 11.9012C81.4841 12.0049 81.6577 12.1433 81.8312 12.3509C81.9701 12.5585 82.0743 12.8007 82.1437 13.0428H83.4283C83.3589 12.5239 83.1853 12.1087 82.9075 11.7282C82.6298 11.3476 82.2826 11.0708 81.866 10.8979C81.4493 10.6903 80.9633 10.6211 80.4425 10.6211C79.9217 10.6211 79.2621 10.7595 78.8107 11.0362C78.3247 11.313 77.9428 11.7282 77.665 12.2817C77.3873 12.8353 77.2484 13.458 77.2484 14.1845C77.2484 14.911 77.3873 15.5684 77.665 16.0873C77.9428 16.6409 78.3247 17.056 78.8107 17.3328C79.2968 17.6096 79.8523 17.7479 80.4772 17.7479C81.1022 17.7479 81.4841 17.6442 81.9354 17.4366C82.3867 17.229 82.6992 16.9522 82.977 16.5717C83.2547 16.1911 83.3936 15.8106 83.463 15.3608H82.1784C82.109 15.6376 82.0048 15.8451 81.866 16.0527C81.6924 16.2603 81.5188 16.3987 81.2758 16.5025C81.0327 16.6063 80.7897 16.6409 80.5119 16.6409C80.2342 16.6409 79.7829 16.5371 79.5051 16.3641C79.1926 16.1911 78.9843 15.8797 78.8107 15.5338C78.6372 15.1532 78.5677 14.7035 78.5677 14.1845C78.5677 13.6656 78.6372 13.2158 78.8107 12.8699C78.9843 12.4893 79.1926 12.2125 79.5051 12.0395H79.4357V12.0049Z" fill="black"/>
<path d="M88.0806 12.6969C87.6987 12.4547 87.2474 12.3509 86.7613 12.3509C86.2753 12.3509 85.8239 12.4547 85.442 12.6969C85.0601 12.9391 84.7824 13.2504 84.5741 13.631C84.3658 14.0461 84.2616 14.4959 84.2616 15.0494C84.2616 15.603 84.3658 16.0527 84.5741 16.4679C84.7824 16.883 85.0601 17.1944 85.442 17.402C85.8239 17.6096 86.2753 17.748 86.7613 17.748C87.2474 17.748 87.6987 17.6442 88.0806 17.402C88.4625 17.1598 88.7403 16.8484 88.9486 16.4679C89.1569 16.0527 89.2611 15.603 89.2611 15.0494C89.2611 14.4959 89.1569 14.0461 88.9486 13.631C88.7403 13.2158 88.4625 12.9045 88.0806 12.6969ZM87.8723 15.9489C87.7682 16.2257 87.6293 16.3987 87.4557 16.5717C87.2821 16.7101 87.0391 16.8139 86.7613 16.8139C86.4836 16.8139 86.2405 16.7447 86.067 16.5717C85.8586 16.4333 85.7198 16.2257 85.6156 15.9489C85.5115 15.7068 85.4767 15.3954 85.4767 15.084C85.4767 14.7727 85.5115 14.4613 85.6156 14.1845C85.7198 13.9078 85.8586 13.7348 86.067 13.5618C86.2753 13.4234 86.4836 13.3196 86.7613 13.3196C87.0391 13.3196 87.2474 13.3888 87.4557 13.5618C87.6293 13.7002 87.8029 13.9078 87.8723 14.1845C87.9765 14.4613 88.0112 14.7381 88.0112 15.084C88.0112 15.43 87.9765 15.7068 87.8723 15.9489Z" fill="black"/>
<path d="M96.8296 12.5585C96.5866 12.4201 96.3089 12.3509 95.9617 12.3509C95.6145 12.3509 95.4756 12.3509 95.2673 12.4547C95.059 12.5585 94.8854 12.6277 94.7118 12.8007C94.5382 12.9737 94.4341 13.112 94.3646 13.3196H94.2952C94.2258 13.112 94.1216 12.9391 93.9827 12.8007C93.8438 12.6623 93.705 12.5585 93.4967 12.4893C93.3231 12.4201 93.08 12.3855 92.8717 12.3855C92.5245 12.3855 92.2121 12.4547 91.969 12.6277C91.726 12.8007 91.5524 13.0428 91.4136 13.3196H91.3441V12.4201H90.1637V17.6442H91.3788V14.4613C91.3788 14.2537 91.4136 14.0461 91.5177 13.9078C91.6219 13.7348 91.726 13.631 91.8649 13.5272C92.0038 13.4234 92.1774 13.3888 92.351 13.3888C92.5245 13.3888 92.6634 13.3888 92.8023 13.4926C92.9412 13.5964 93.0453 13.6656 93.1148 13.804C93.1842 13.9424 93.2189 14.0807 93.2189 14.2883V17.6788H94.4341V14.3921C94.4341 14.1845 94.4688 14.0115 94.5382 13.8732C94.6076 13.7348 94.7118 13.5964 94.8507 13.5272C94.9896 13.458 95.1632 13.3888 95.3715 13.3888C95.5798 13.3888 95.8575 13.458 96.0311 13.631C96.2047 13.804 96.2741 14.0115 96.2741 14.3229V17.6442H97.524V14.1499C97.524 13.7694 97.4546 13.4234 97.3157 13.1812C97.1768 12.9045 97.0032 12.6969 96.7255 12.5585H96.8296Z" fill="black"/>
<path d="M102.662 12.6623C102.35 12.4547 101.968 12.3509 101.551 12.3509C101.135 12.3509 101.031 12.3509 100.857 12.4893C100.649 12.5931 100.51 12.6969 100.371 12.8007C100.267 12.9391 100.163 13.0774 100.058 13.2158V13.285H99.9543V12.4201H98.7391V19.6162H99.9543V16.8139H100.024C100.128 16.9868 100.232 17.1598 100.336 17.2636C100.44 17.402 100.614 17.5058 100.822 17.575C101.031 17.6788 101.274 17.7134 101.517 17.7134C101.933 17.7134 102.315 17.6096 102.628 17.402C102.94 17.1944 103.218 16.883 103.391 16.4679C103.565 16.0527 103.669 15.5684 103.669 15.0148C103.669 14.4613 103.565 13.977 103.391 13.5618C103.218 13.1466 102.94 12.8353 102.628 12.6277L102.662 12.6623ZM102.35 15.9143C102.246 16.1565 102.107 16.3641 101.933 16.5025C101.76 16.6409 101.517 16.7101 101.239 16.7101C100.961 16.7101 100.753 16.6409 100.579 16.5025C100.406 16.3641 100.232 16.1565 100.163 15.9143C100.058 15.6722 100.024 15.3608 100.024 15.0148C100.024 14.6689 100.058 14.3921 100.163 14.1153C100.267 13.8732 100.406 13.6656 100.579 13.5272C100.753 13.3888 100.996 13.3196 101.274 13.3196C101.551 13.3196 101.76 13.3888 101.968 13.5272C102.142 13.6656 102.28 13.8732 102.385 14.1153C102.489 14.3575 102.523 14.6689 102.523 14.9802C102.523 15.2916 102.489 15.603 102.385 15.8798H102.35V15.9143Z" fill="black"/>
<path d="M108.044 15.4646C108.044 15.7068 107.974 15.9143 107.87 16.1219C107.766 16.2949 107.627 16.4333 107.453 16.5371C107.28 16.6409 107.106 16.6755 106.898 16.6755C106.69 16.6755 106.516 16.6755 106.377 16.5371C106.238 16.4333 106.099 16.3295 106.03 16.1565C105.961 15.9835 105.891 15.8105 105.891 15.5684V12.4201H104.676V15.7414C104.676 16.1565 104.745 16.5025 104.884 16.8138C105.023 17.1252 105.232 17.3328 105.509 17.5058C105.787 17.6788 106.065 17.7479 106.412 17.7479C106.759 17.7479 107.141 17.6442 107.384 17.4712C107.662 17.2982 107.835 17.056 107.974 16.7447H108.044V17.6788H109.224V12.4547H108.009V15.4992H108.044V15.4646Z" fill="black"/>
<path d="M112.314 16.6409C112.245 16.6409 112.175 16.5371 112.106 16.4679C112.071 16.3641 112.036 16.2603 112.036 16.0873V13.3542H113.078V12.4201H112.036V11.1747H110.786V12.4201H110.057V13.3542H110.786V16.2603C110.786 16.5717 110.856 16.8485 110.995 17.056C111.134 17.2636 111.342 17.4366 111.585 17.5404C111.828 17.6442 112.106 17.7134 112.418 17.7134C112.731 17.7134 112.904 17.7134 113.113 17.6442V16.6409H112.592C112.488 16.6409 112.384 16.6409 112.279 16.5717V16.6409H112.314Z" fill="black"/>
<path d="M115.022 10.4481C114.918 10.3789 114.779 10.3443 114.675 10.3443C114.571 10.3443 114.432 10.3443 114.328 10.4481C114.224 10.5173 114.119 10.5865 114.05 10.6903C113.981 10.7941 113.946 10.8979 113.946 11.0363C113.946 11.1746 113.946 11.2784 114.05 11.3822C114.119 11.486 114.189 11.5552 114.328 11.6244C114.432 11.6936 114.571 11.7282 114.675 11.7282C114.779 11.7282 114.918 11.7282 115.022 11.6244C115.126 11.5552 115.23 11.486 115.3 11.3822C115.369 11.2784 115.404 11.1746 115.404 11.0363C115.404 10.8979 115.404 10.7941 115.3 10.6903C115.23 10.5865 115.161 10.5173 115.022 10.4481Z" fill="black"/>
<path d="M115.265 12.4201H114.05V17.6442H115.265V12.4201Z" fill="black"/>
<path d="M120.23 12.5931C119.952 12.4547 119.64 12.3509 119.292 12.3509C118.945 12.3509 118.563 12.4201 118.32 12.5931C118.043 12.7661 117.869 13.0083 117.73 13.285H117.661V12.3855H116.48V17.6096H117.695V14.5305C117.695 14.2883 117.73 14.0807 117.834 13.8732C117.938 13.7002 118.043 13.5618 118.216 13.458C118.39 13.3542 118.563 13.3196 118.806 13.3196C119.049 13.3196 119.223 13.3196 119.362 13.458C119.501 13.5618 119.64 13.6656 119.709 13.8386C119.778 14.0115 119.813 14.2191 119.813 14.4267V17.575H121.028V14.2537C121.028 13.8386 120.959 13.4926 120.82 13.1812C120.681 12.8699 120.473 12.6623 120.195 12.5239V12.5931H120.23Z" fill="black"/>
<path d="M125.785 12.4201V13.285H125.715V13.1812C125.577 13.0082 125.472 12.8699 125.368 12.7661C125.264 12.6623 125.09 12.5585 124.917 12.4547C124.743 12.3855 124.5 12.3163 124.222 12.3163C123.806 12.3163 123.459 12.4201 123.111 12.6277C122.799 12.8353 122.521 13.1466 122.348 13.5272C122.174 13.9077 122.07 14.3921 122.07 14.9456C122.07 15.4992 122.174 15.9835 122.348 16.3641C122.521 16.7447 122.799 17.056 123.111 17.2636C123.424 17.4712 123.806 17.575 124.222 17.575C124.639 17.575 124.743 17.575 124.952 17.4366C125.16 17.3674 125.299 17.2636 125.438 17.1252C125.542 17.0214 125.646 16.883 125.75 16.7101H125.82V17.7133C125.82 18.0939 125.715 18.3707 125.507 18.5437C125.299 18.7166 124.986 18.8204 124.604 18.8204C124.222 18.8204 124.014 18.7512 123.841 18.6475C123.632 18.5437 123.528 18.3707 123.459 18.1285H122.244C122.244 18.4745 122.382 18.7512 122.591 18.9934C122.799 19.2356 123.042 19.4086 123.389 19.547C123.736 19.6853 124.153 19.7545 124.604 19.7545C125.056 19.7545 125.507 19.6853 125.889 19.547C126.271 19.4086 126.549 19.1664 126.757 18.8896C126.965 18.5783 127.069 18.2323 127.069 17.7825V12.4547H125.785V12.4201ZM125.646 15.8797C125.542 16.1219 125.403 16.2949 125.229 16.4333C125.056 16.5717 124.813 16.6409 124.535 16.6409C124.257 16.6409 124.049 16.5717 123.841 16.4333C123.667 16.2949 123.528 16.1219 123.424 15.8797C123.32 15.6376 123.285 15.3608 123.285 15.0148C123.285 14.6689 123.32 14.3921 123.424 14.1499C123.528 13.9077 123.667 13.7002 123.841 13.5618C124.014 13.4234 124.257 13.3542 124.535 13.3542C124.813 13.3542 125.021 13.4234 125.229 13.5618C125.403 13.7002 125.542 13.8732 125.646 14.1499C125.75 14.3921 125.785 14.7035 125.785 15.0148C125.785 15.3262 125.75 15.6376 125.646 15.8797Z" fill="black"/>
</g>
<defs>
<clipPath id="clip0_854_2978">
<rect width="127" height="21" fill="white"/>
</clipPath>
</defs>
</svg>
