<svg xmlns="http://www.w3.org/2000/svg" width="49" height="49" viewBox="0 0 49 49" fill="none">
  <g clip-path="url(#clip0_487_2276)">
    <path d="M31.5701 25.4444L23.9569 33.0576C23.3559 33.6586 23.3559 34.46 23.9569 35.0611C24.558 35.6621 25.3594 35.6621 25.9604 35.0611L35.9778 25.0437C36.5788 24.4427 36.5788 23.6413 35.9778 23.0403L25.9604 13.0229C25.3594 12.4219 24.558 12.4219 23.9569 13.0229C23.3559 13.624 23.3559 14.4253 23.9569 15.0264L31.5701 22.6396L14.9413 22.6396C14.1399 22.6396 13.5389 23.2406 13.5389 24.042C13.5389 24.8434 14.1399 25.4444 14.9413 25.4444L31.5701 25.4444Z" fill="white"/>
  </g>
  <defs>
    <clipPath id="clip0_487_2276">
      <rect width="34" height="34" fill="white" transform="translate(49 24.042) rotate(135)"/>
    </clipPath>
  </defs>
</svg>