<svg width="25" height="25" viewBox="0 0 25 25" fill="none" xmlns="http://www.w3.org/2000/svg">
<path d="M10.1406 18.0852L8.53687 19.6436C8.11634 20.0642 7.54598 20.3004 6.95126 20.3004C6.35654 20.3004 5.78617 20.0642 5.36564 19.6436C4.94511 19.2231 4.70886 18.6527 4.70886 18.058C4.70886 17.4633 4.94511 16.8929 5.36564 16.4724L9.47918 12.3498C9.88293 11.9448 10.4269 11.7104 10.9987 11.6952C11.5704 11.68 12.1261 11.8852 12.5507 12.2683L12.6595 12.3589C12.8313 12.5271 13.0629 12.6202 13.3033 12.6176C13.5438 12.6151 13.7733 12.5171 13.9415 12.3453C14.1098 12.1735 14.2028 11.9419 14.2003 11.7014C14.1977 11.461 14.0998 11.2314 13.928 11.0632C13.8768 10.9971 13.8224 10.9336 13.7649 10.8729C12.9914 10.2 11.9911 9.84622 10.9665 9.88324C9.942 9.92025 8.96982 10.3453 8.24693 11.0723L4.07903 15.1949C3.37081 15.9657 2.98779 16.9804 3.00994 18.027C3.0321 19.0736 3.45773 20.0711 4.19794 20.8113C4.93815 21.5516 5.93571 21.9772 6.98229 21.9993C8.02887 22.0215 9.04354 21.6385 9.81442 20.9302L11.3819 19.399C11.5367 19.2302 11.6218 19.009 11.62 18.7799C11.6183 18.5509 11.5299 18.331 11.3726 18.1645C11.2153 17.998 11.0008 17.8973 10.7722 17.8826C10.5436 17.8679 10.3179 17.9403 10.1406 18.0852ZM19.8264 5.18285C19.0642 4.42539 18.0333 4.00024 16.9587 4.00024C15.8842 4.00024 14.8532 4.42539 14.091 5.18285L12.5236 6.7141C12.3688 6.88294 12.2837 7.10414 12.2854 7.33318C12.2872 7.56222 12.3756 7.78211 12.5329 7.9486C12.6902 8.11509 12.9047 8.21582 13.1333 8.23053C13.3618 8.24524 13.5875 8.17284 13.7649 8.02789L15.3323 6.46946C15.7529 6.04893 16.3232 5.81268 16.918 5.81268C17.5127 5.81268 18.083 6.04893 18.5036 6.46946C18.9241 6.88999 19.1604 7.46035 19.1604 8.05507C19.1604 8.64979 18.9241 9.22015 18.5036 9.64069L14.39 13.7633C13.9863 14.1683 13.4423 14.4027 12.8706 14.4179C12.2988 14.4331 11.7432 14.2279 11.3185 13.8448L11.2098 13.7542C11.0379 13.586 10.8063 13.4929 10.5659 13.4955C10.3255 13.498 10.0959 13.596 9.92768 13.7678C9.75946 13.9396 9.6664 14.1712 9.66894 14.4117C9.67149 14.6521 9.76945 14.8817 9.94127 15.0499C10.0071 15.1172 10.0767 15.1807 10.1497 15.2402C10.9241 15.9111 11.9239 16.2635 12.9479 16.2265C13.9718 16.1895 14.9436 15.7659 15.6676 15.0408L19.7902 10.9182C20.5525 10.1608 20.9842 9.13259 20.9909 8.05802C20.9977 6.98344 20.5791 5.94983 19.8264 5.18285Z" fill="black" fill-opacity="0.4"/>
</svg>
