<svg xmlns="http://www.w3.org/2000/svg" width="22" height="22" viewBox="0 0 22 22" fill="none">
<path d="M16.5 9.91801C16.2569 9.91801 16.0238 10.0146 15.8519 10.1865C15.6799 10.3584 15.5834 10.5916 15.5834 10.8347V17.4163C15.5834 17.6595 15.4868 17.8926 15.3149 18.0645C15.143 18.2364 14.9098 18.333 14.6667 18.333H4.58337C4.34026 18.333 4.1071 18.2364 3.93519 18.0645C3.76328 17.8926 3.66671 17.6595 3.66671 17.4163V7.33301C3.66671 7.08989 3.76328 6.85673 3.93519 6.68483C4.1071 6.51292 4.34026 6.41634 4.58337 6.41634H11.165C11.4082 6.41634 11.6413 6.31976 11.8132 6.14786C11.9851 5.97595 12.0817 5.74279 12.0817 5.49967C12.0817 5.25656 11.9851 5.0234 11.8132 4.85149C11.6413 4.67958 11.4082 4.58301 11.165 4.58301H4.58337C3.85403 4.58301 3.15456 4.87274 2.63883 5.38846C2.12311 5.90419 1.83337 6.60366 1.83337 7.33301V17.4163C1.83337 18.1457 2.12311 18.8452 2.63883 19.3609C3.15456 19.8766 3.85403 20.1663 4.58337 20.1663H14.6667C15.3961 20.1663 16.0955 19.8766 16.6113 19.3609C17.127 18.8452 17.4167 18.1457 17.4167 17.4163V10.8347C17.4167 10.5916 17.3201 10.3584 17.1482 10.1865C16.9763 10.0146 16.7432 9.91801 16.5 9.91801ZM20.0934 2.40134C20.0004 2.17735 19.8224 1.99936 19.5984 1.90634C19.4882 1.85937 19.3698 1.83446 19.25 1.83301H13.75C13.5069 1.83301 13.2738 1.92958 13.1019 2.10149C12.93 2.2734 12.8334 2.50656 12.8334 2.74967C12.8334 2.99279 12.93 3.22595 13.1019 3.39786C13.2738 3.56976 13.5069 3.66634 13.75 3.66634H17.0409L7.59921 13.0988C7.51329 13.1841 7.44509 13.2854 7.39856 13.3971C7.35202 13.5088 7.32806 13.6287 7.32806 13.7497C7.32806 13.8707 7.35202 13.9905 7.39856 14.1022C7.44509 14.2139 7.51329 14.3153 7.59921 14.4005C7.68442 14.4864 7.78581 14.5546 7.89751 14.6012C8.00922 14.6477 8.12903 14.6717 8.25004 14.6717C8.37105 14.6717 8.49086 14.6477 8.60257 14.6012C8.71427 14.5546 8.81566 14.4864 8.90087 14.4005L18.3334 4.95884V8.24967C18.3334 8.49279 18.4299 8.72595 18.6019 8.89786C18.7738 9.06976 19.0069 9.16634 19.25 9.16634C19.4932 9.16634 19.7263 9.06976 19.8982 8.89786C20.0701 8.72595 20.1667 8.49279 20.1667 8.24967V2.74967C20.1653 2.62989 20.1403 2.51154 20.0934 2.40134Z" fill="black" fill-opacity="0.4"/>
</svg>