<svg xmlns="http://www.w3.org/2000/svg" width="18" height="18" viewBox="0 0 18 18" fill="none">
  <g filter="url(#filter0_d_506_971)">
    <path d="M10.4 8L16.7 1.7C17.1 1.3 17.1 0.7 16.7 0.3C16.3 -0.1 15.7 -0.1 15.3 0.3L9 6.6L2.7 0.3C2.3 -0.1 1.7 -0.1 1.3 0.3C0.9 0.7 0.9 1.3 1.3 1.7L7.6 8L1.3 14.3C1.1 14.5 1 14.7 1 15C1 15.6 1.4 16 2 16C2.3 16 2.5 15.9 2.7 15.7L9 9.4L15.3 15.7C15.5 15.9 15.7 16 16 16C16.3 16 16.5 15.9 16.7 15.7C17.1 15.3 17.1 14.7 16.7 14.3L10.4 8Z" fill="black"/>
  </g>
  <defs>
    <filter id="filter0_d_506_971" x="0" y="0" width="18" height="18" filterUnits="userSpaceOnUse" color-interpolation-filters="sRGB">
      <feFlood flood-opacity="0" result="BackgroundImageFix"/>
      <feColorMatrix in="SourceAlpha" type="matrix" values="0 0 0 0 0 0 0 0 0 0 0 0 0 0 0 0 0 0 127 0" result="hardAlpha"/>
      <feOffset dy="1"/>
      <feGaussianBlur stdDeviation="0.5"/>
      <feComposite in2="hardAlpha" operator="out"/>
      <feColorMatrix type="matrix" values="0 0 0 0 0 0 0 0 0 0 0 0 0 0 0 0 0 0 0.25 0"/>
      <feBlend mode="normal" in2="BackgroundImageFix" result="effect1_dropShadow_506_971"/>
      <feBlend mode="normal" in="SourceGraphic" in2="effect1_dropShadow_506_971" result="shape"/>
    </filter>
  </defs>
</svg>